<svg width="800" height="600" xmlns="http://www.w3.org/2000/svg">

 <g>
  <title>Layer 1</title>
  <path transform="rotate(-61.191 328.14 351.282)" stroke="#000" id="svg_43" d="m168.24808,641.95247c13.66144,-68.80928 32.36017,-127.08361 50.09712,-156.12663c19.00228,-31.11497 10.57161,-44.61165 -9.03078,-14.45745c-8.24696,12.68614 -10.60324,3.4746 -10.60324,-41.45206c0,-107.19146 36.12196,-173.51842 123.0333,-225.91285c73.53989,-44.33367 127.75757,-94.18974 150.23739,-138.15157l18.31826,-35.82365l0,62.32962c0,77.07149 -15.54415,193.50786 -32.75012,245.32088c-18.25246,54.96456 -80.81499,156.42104 -111.51544,180.84258c-27.50488,21.87971 -86.2465,28.32096 -117.64113,12.89989c-15.64523,-7.68485 -20.61055,-1.81324 -28.71708,33.95881c-5.39064,23.78744 -9.80118,57.62879 -9.80118,75.2027c0,19.95127 -5.20184,31.95252 -13.84949,31.95252c-10.27081,0 -12.28051,-7.9024 -7.77758,-30.58278l-0.00002,0z" stroke-width="0" fill="#45cc64"/>
  <polyline stroke-linecap="round" id="svg_3" points="825,367 828,366 " stroke="#000" fill="none"/>
  <path d="m859,391c2,2 2.79895,1.97958 3,1c1.53125,-7.46024 9.13635,-23.5473 23,-60c10.90454,-28.67212 26.43677,-55.27515 37,-78c8.14087,-17.5136 12.41364,-27.62532 16,-32c2.28589,-2.78833 5,-5 7,-5c2,0 6,0 12,0l12,3" id="svg_5" stroke="#000" fill="none"/>
  <ellipse stroke-width="0" ry="47" rx="48" id="svg_9" cy="231" cx="122" stroke="#000" fill="#ede776"/>
  <ellipse stroke-width="0" ry="47" rx="48" id="svg_18" cy="134" cx="110" stroke="#000" fill="#FFFA8D"/>
  <ellipse stroke-width="0" ry="47" rx="48" id="svg_19" cy="115" cx="282" stroke="#000" fill="#f4ed5d"/>
  <ellipse stroke-width="0" ry="47" rx="48" id="svg_20" cy="76" cx="190" stroke="#000" fill="#FFFA8D"/>
  <ellipse stroke-width="0" ry="47" rx="48" id="svg_21" cy="171" cx="204" stroke="#000" fill="#ede776"/>
  <ellipse stroke-width="0" ry="47" rx="48" id="svg_22" cy="368" cx="227" stroke="#000" fill="#e2d951"/>
  <ellipse stroke-width="0" ry="47" rx="48" id="svg_23" cy="264" cx="226" stroke="#000" fill="#FFFA8D"/>
  <ellipse stroke-width="0" ry="47" rx="48" id="svg_24" cy="260" cx="384" stroke="#000" fill="#eae693"/>
  <ellipse stroke-width="0" ry="47" rx="48" id="svg_25" cy="208" cx="305" stroke="#000" fill="#f4ed5d"/>
  <ellipse stroke-width="0" ry="47" rx="48" id="svg_26" cy="313" cx="305" stroke="#000" fill="#f4ed5d"/>
  <ellipse stroke-width="0" ry="47" rx="48" id="svg_27" cy="502" cx="348" stroke="#000" fill="#FFFA8D"/>
  <ellipse stroke-width="0" ry="47" rx="48" id="svg_28" cy="400" cx="336" stroke="#000" fill="#e2d951"/>
  <ellipse stroke-width="0" ry="47" rx="48" id="svg_29" cy="386" cx="508" stroke="#000" fill="#f7cfaf"/>
  <ellipse stroke-width="0" ry="47" rx="48" id="svg_30" cy="347" cx="416" stroke="#000" fill="#eae693"/>
  <ellipse stroke-width="0" ry="47" rx="48" id="svg_31" cy="442" cx="430" stroke="#000" fill="#FFFA8D"/>
  <ellipse stroke-width="0" ry="47" rx="48" id="svg_32" cy="320" cx="146" stroke="#000" fill="#ede776"/>
  <ellipse stroke-width="0" ry="47" rx="48" id="svg_33" cy="483" cx="531" stroke="#000" fill="#f7cfaf"/>
  <ellipse stroke-width="0" ry="47" rx="48" id="svg_34" cy="539" cx="451" stroke="#000" fill="#f7cfaf"/>
  <ellipse stroke-width="0" ry="47" rx="48" id="svg_37" cy="167" cx="392" stroke="#000" fill="#FFFA8D"/>
  <ellipse stroke-width="0" ry="47" rx="48" id="svg_38" cy="289" cx="491" stroke="#000" fill="#FFFA8D"/>
  <ellipse stroke-width="0" ry="47" rx="48" id="svg_39" cy="456" cx="259" stroke="#000" fill="#e2d951"/>
  <path id="svg_41" d="m746.42819,297.9611c0.04886,-0.1071 0.11573,-0.1978 0.17916,-0.243c0.06796,-0.04843 0.03781,-0.06943 -0.0323,-0.0225c-0.02949,0.01974 -0.03792,0.00541 -0.03792,-0.06452c0,-0.16683 0.12918,-0.27007 0.43999,-0.35161c0.26299,-0.069 0.45689,-0.1466 0.53728,-0.21502l0.06551,-0.05576l0,0.09701c0,0.11996 -0.05559,0.30118 -0.11712,0.38182c-0.06527,0.08555 -0.28901,0.24346 -0.3988,0.28147c-0.09836,0.03405 -0.30844,0.04408 -0.42071,0.02008c-0.05595,-0.01196 -0.07371,-0.00282 -0.1027,0.05285c-0.01928,0.03702 -0.03505,0.08969 -0.03505,0.11705c0,0.03105 -0.0186,0.04973 -0.04953,0.04973c-0.03673,0 -0.04392,-0.0123 -0.02781,-0.0476l0,0z" stroke-width="0" stroke="#000" fill="#f7cfaf"/>
  <path transform="rotate(-53.6077 462.451 372.361)" stroke="#000" id="svg_42" d="m306.73397,631.7866c13.30466,-61.41284 31.51507,-113.42316 48.78879,-139.34429c18.50602,-27.77036 10.29553,-39.81626 -8.79493,-12.90339c-8.0316,11.32248 -10.32633,3.10112 -10.32633,-36.9963c0,-95.66925 35.1786,-154.86659 119.82021,-201.62905c71.61936,-39.56816 124.42111,-84.06511 146.31385,-123.3014l17.83988,-31.9729l0,55.62968c0,68.78694 -15.13821,172.70734 -31.89483,218.95088c-17.77579,49.05632 -78.70446,139.60705 -108.60315,161.40347c-26.78657,19.52782 -83.99411,25.27669 -114.56886,11.51326c-15.23665,-6.8588 -20.07229,-1.61833 -27.96712,30.3085c-5.24986,21.23048 -9.54521,51.43416 -9.54521,67.11902c0,17.80667 -5.06599,28.51788 -13.48781,28.51788c-10.00258,0 -11.9598,-7.05295 -7.57446,-27.29537l-0.00002,0z" stroke-width="0" fill="#48ce46"/>
  <path transform="rotate(-0.204766 332.935 433.965)" stroke="#000" id="svg_40" d="m592.20096,711.32383c-22.15206,-65.65801 -52.47215,-121.26354 -81.23267,-148.97647c-30.81227,-29.68999 -17.14192,-42.56856 14.64344,-13.79534c13.3725,12.10515 17.1932,3.31548 17.1932,-39.55367c0,-102.28239 -58.57189,-165.57176 -199.499,-215.56667c-119.24523,-42.30331 -207.15942,-89.87612 -243.61054,-131.82462l-29.70315,-34.18303l0,59.47509c0,73.54184 25.20491,184.64574 53.10446,234.08588c29.59643,52.44735 131.04184,149.2574 180.82275,172.56051c44.59928,20.87767 139.84904,27.02394 190.75557,12.30912c25.36882,-7.33291 33.42008,-1.73019 46.56488,32.40358c8.74093,22.69804 15.89265,54.98955 15.89265,71.75864c0,19.03756 8.43481,30.48917 22.45701,30.48917c16.65416,0 19.9129,-7.54049 12.61137,-29.18217l0.00002,0z" stroke-width="0" fill="#68d145"/>
 </g>
</svg>