<svg width="700" height="250" xmlns="http://www.w3.org/2000/svg">

 <g>
  <title>Layer 1</title>
  <polyline stroke-linecap="round" id="svg_3" points="825,367 828,366 " stroke="#000" fill="none"/>
  <path d="m859,391c2,2 2.79895,1.97958 3,1c1.53125,-7.46024 9.13635,-23.5473 23,-60c10.90454,-28.67212 26.43677,-55.27515 37,-78c8.14087,-17.5136 12.41364,-27.62532 16,-32c2.28589,-2.78833 5,-5 7,-5c2,0 6,0 12,0l12,3" id="svg_5" stroke="#000" fill="none"/>
  <path id="svg_41" d="m746.42819,297.9611c0.04886,-0.1071 0.11573,-0.1978 0.17916,-0.243c0.06796,-0.04843 0.03781,-0.06943 -0.0323,-0.0225c-0.02949,0.01974 -0.03792,0.00541 -0.03792,-0.06452c0,-0.16683 0.12918,-0.27007 0.43999,-0.35161c0.26299,-0.069 0.45689,-0.1466 0.53728,-0.21502l0.06551,-0.05576l0,0.09701c0,0.11996 -0.05559,0.30118 -0.11712,0.38182c-0.06527,0.08555 -0.28901,0.24346 -0.3988,0.28147c-0.09836,0.03405 -0.30844,0.04408 -0.42071,0.02008c-0.05595,-0.01196 -0.07371,-0.00282 -0.1027,0.05285c-0.01928,0.03702 -0.03505,0.08969 -0.03505,0.11705c0,0.03105 -0.0186,0.04973 -0.04953,0.04973c-0.03673,0 -0.04392,-0.0123 -0.02781,-0.0476l0,0z" stroke-width="0" stroke="#000" fill="#f7cfaf"/>
  <g stroke="null" id="svg_44">
   <path stroke="#000" id="svg_43" d="m616.80033,213.92927c-19.70774,-12.03883 -35.13761,-23.90084 -41.33918,-31.7803c-6.64399,-8.44159 -12.47413,-8.20596 -6.24516,0.25239c2.62057,3.55852 -0.75774,2.92514 -15.20244,-2.85024c-34.46392,-13.77959 -49.40205,-30.74939 -50.87997,-57.8c-1.25061,-22.88885 -7.69335,-41.97112 -17.85293,-52.87705l-8.27886,-8.88701l20.04005,8.01255c24.77982,9.90763 59.4676,28.50907 73.084,39.19153c14.44463,11.33221 36.00225,38.99835 38.4257,49.3139c2.17125,9.24184 -6.14455,23.80053 -16.65394,29.15652c-5.23723,2.66913 -4.22738,4.58455 5.84055,11.07797c6.69489,4.31795 16.7956,9.69924 22.44591,11.95839c6.41468,2.56476 9.35349,5.32345 7.8244,7.34481c-1.8161,2.40077 -4.71222,1.85467 -11.20814,-2.11347l0,0z" stroke-width="0" fill="#45cc64"/>
   <ellipse stroke="#000" stroke-width="0" ry="12.5379" rx="17.61275" id="svg_9" cy="107.10208" cx="475.97749" fill="#eab575"/>
   <ellipse stroke="#000" stroke-width="0" ry="12.5379" rx="17.61275" id="svg_18" cy="81.22598" cx="471.57431" fill="#FFFA8D"/>
   <ellipse stroke="#000" stroke-width="0" ry="12.5379" rx="17.61275" id="svg_19" cy="76.15747" cx="534.68665" fill="#f4ed5d"/>
   <ellipse stroke="#000" stroke-width="0" ry="12.5379" rx="17.61275" id="svg_20" cy="65.75368" cx="500.92889" fill="#FFFA8D"/>
   <ellipse stroke="#000" stroke-width="0" ry="12.5379" rx="17.61275" id="svg_21" cy="91.09625" cx="506.06594" fill="#eac975"/>
   <ellipse stroke="#000" stroke-width="0" ry="12.5379" rx="17.61275" id="svg_22" cy="143.64872" cx="514.50538" fill="#e2d951"/>
   <ellipse stroke="#000" stroke-width="0" ry="12.5379" rx="17.61275" id="svg_23" cy="115.90528" cx="514.13845" fill="#FFFA8D"/>
   <ellipse stroke="#000" stroke-width="0" ry="12.5379" rx="17.61275" id="svg_24" cy="114.83823" cx="572.11374" fill="#eae693"/>
   <ellipse stroke="#000" stroke-width="0" ry="12.5379" rx="17.61275" id="svg_25" cy="100.96651" cx="543.12609" fill="#f4ed5d"/>
   <ellipse stroke="#000" stroke-width="0" ry="12.5379" rx="17.61275" id="svg_26" cy="128.97671" cx="543.12609" fill="#f2b75e"/>
   <ellipse stroke="#000" stroke-width="0" ry="12.5379" rx="17.61275" id="svg_27" cy="179.39507" cx="558.90418" fill="#FFFA8D"/>
   <ellipse stroke="#000" stroke-width="0" ry="12.5379" rx="17.61275" id="svg_28" cy="152.18516" cx="554.50099" fill="#e2d951"/>
   <ellipse stroke="#000" stroke-width="0" ry="12.5379" rx="17.61275" id="svg_29" cy="148.45047" cx="617.61334" fill="#f7cfaf"/>
   <ellipse stroke="#000" stroke-width="0" ry="12.5379" rx="17.61275" id="svg_30" cy="138.04668" cx="583.85557" fill="#eae693"/>
   <ellipse stroke="#000" stroke-width="0" ry="12.5379" rx="17.61275" id="svg_31" cy="163.38924" cx="588.99262" fill="#FFFA8D"/>
   <ellipse stroke="#000" stroke-width="0" ry="12.5379" rx="17.61275" id="svg_32" cy="130.84406" cx="484.78387" fill="#ede776"/>
   <ellipse stroke="#000" stroke-width="0" ry="12.5379" rx="17.61275" id="svg_33" cy="174.32656" cx="626.05278" fill="#f7cfaf"/>
   <ellipse stroke="#000" stroke-width="0" ry="12.5379" rx="17.61275" id="svg_34" cy="189.26533" cx="596.6982" fill="#f7cfaf"/>
   <ellipse stroke="#000" stroke-width="0" ry="12.5379" rx="17.61275" id="svg_37" cy="90.02919" cx="575.0492" fill="#FFFA8D"/>
   <ellipse stroke="#000" stroke-width="0" ry="12.5379" rx="17.61275" id="svg_38" cy="122.57438" cx="611.37549" fill="#FFFA8D"/>
   <ellipse stroke="#000" stroke-width="0" ry="12.5379" rx="17.61275" id="svg_39" cy="167.12394" cx="526.24721" fill="#e2d951"/>
   <path stroke="#000" id="svg_42" d="m643.62634,219.31059c-15.24306,-12.57706 -26.64089,-24.7194 -30.53665,-32.53136c-4.1737,-8.36927 -9.51917,-8.51271 -5.72598,-0.15367c1.59581,3.51674 -1.33212,2.70828 -13.17571,-3.6381c-28.25789,-15.14195 -38.08449,-32.06552 -33.46985,-57.64254c3.90462,-21.64199 2.25672,-40.02322 -4.56637,-50.9345l-5.56003,-8.89137l16.43138,8.80473c20.31764,10.88718 47.71702,30.58581 57.728,41.50324c10.61992,11.58147 24.10148,38.99697 24.03041,48.86716c-0.06362,8.84283 -10.81994,22.03735 -21.54153,26.42451c-5.34298,2.18632 -4.84784,4.05414 2.86366,10.80264c5.12794,4.48757 13.1141,10.1904 17.74695,12.67291c5.25957,2.81833 7.32045,5.6015 5.48698,7.40998c-2.17761,2.14793 -4.68694,1.45192 -9.71125,-2.69362l0,0z" stroke-width="0" fill="#48ce46"/>
   <path stroke="#000" id="svg_40" d="m648.87249,234.98745c-8.21436,-17.49395 -19.41262,-32.29849 -30.00206,-39.66384c-11.34488,-7.89079 -6.34571,-11.33934 5.35503,-3.69404c4.92264,3.21645 6.31305,0.86805 6.25683,-10.56781c-0.13413,-27.28507 -21.7089,-44.11243 -73.48483,-57.31483c-43.81011,-11.17124 -76.13084,-23.77805 -89.56086,-34.93357l-10.9438,-9.09042l0.07799,15.8657c0.09644,19.61818 9.49057,49.23246 19.79258,62.39462c10.92859,13.96275 48.2789,39.69129 66.57556,45.86022c16.39219,5.52685 51.35023,7.07564 70.01006,3.10175c9.29896,-1.98033 12.26056,-0.49341 17.12854,8.59965c3.23708,6.04664 5.9036,14.65398 5.92559,19.12733c0.02497,5.0785 3.13497,8.12532 8.28013,8.11195c6.11091,-0.01588 7.29675,-2.0305 4.58922,-7.79672l0.00001,0z" stroke-width="0" fill="#68d145"/>
  </g>
  <text font-style="normal" font-weight="bold" transform="matrix(4.35869 0 0 5.29939 -815.648 -647.632)" stroke="#000" xml:space="preserve" text-anchor="start" font-family="'Cuprum'" font-size="32" id="svg_45" y="162.63059" x="190.41538" stroke-width="0" fill="#fce705">Freckled</text>
 </g>
</svg>